<mxfile host="www.draw.io" modified="2019-12-19T14:58:11.109Z" agent="Mozilla/5.0 (Macintosh; Intel Mac OS X 10_14_2) AppleWebKit/537.36 (KHTML, like Gecko) Chrome/78.0.3904.97 Safari/537.36" etag="TjzZEDkkFsgypM9XSE-2" version="12.4.3" type="github" pages="1">
  <diagram id="oIQ_IgHOGJ_vRnVdbhWe" name="Page-1">
    <mxGraphModel dx="1412" dy="757" grid="1" gridSize="10" guides="1" tooltips="1" connect="1" arrows="1" fold="1" page="1" pageScale="1" pageWidth="827" pageHeight="1169" math="0" shadow="0">
      <root>
        <mxCell id="0"/>
        <mxCell id="1" parent="0"/>
        <mxCell id="ohPOXBlXeeKUD0lV66k1-4" style="edgeStyle=orthogonalEdgeStyle;rounded=0;orthogonalLoop=1;jettySize=auto;html=1;" parent="1" source="ohPOXBlXeeKUD0lV66k1-6" target="ohPOXBlXeeKUD0lV66k1-39" edge="1">
          <mxGeometry relative="1" as="geometry">
            <Array as="points">
              <mxPoint x="200" y="271"/>
            </Array>
          </mxGeometry>
        </mxCell>
        <mxCell id="ohPOXBlXeeKUD0lV66k1-5" style="edgeStyle=orthogonalEdgeStyle;curved=1;orthogonalLoop=1;jettySize=auto;html=1;" parent="1" source="ohPOXBlXeeKUD0lV66k1-6" edge="1">
          <mxGeometry relative="1" as="geometry">
            <mxPoint x="222" y="251" as="targetPoint"/>
          </mxGeometry>
        </mxCell>
        <mxCell id="ohPOXBlXeeKUD0lV66k1-6" value="営業" style="shape=umlActor;verticalLabelPosition=bottom;labelBackgroundColor=#ffffff;verticalAlign=top;html=1;outlineConnect=0;" parent="1" vertex="1">
          <mxGeometry x="90" y="221" width="30" height="60" as="geometry"/>
        </mxCell>
        <mxCell id="ohPOXBlXeeKUD0lV66k1-77" style="edgeStyle=orthogonalEdgeStyle;rounded=0;orthogonalLoop=1;jettySize=auto;html=1;entryX=-0.037;entryY=0.467;entryDx=0;entryDy=0;entryPerimeter=0;" parent="1" source="ohPOXBlXeeKUD0lV66k1-8" target="ohPOXBlXeeKUD0lV66k1-68" edge="1">
          <mxGeometry relative="1" as="geometry"/>
        </mxCell>
        <mxCell id="ohPOXBlXeeKUD0lV66k1-78" style="edgeStyle=orthogonalEdgeStyle;rounded=0;orthogonalLoop=1;jettySize=auto;html=1;entryX=0.5;entryY=1;entryDx=0;entryDy=0;startArrow=block;startFill=1;" parent="1" source="ohPOXBlXeeKUD0lV66k1-8" target="ohPOXBlXeeKUD0lV66k1-66" edge="1">
          <mxGeometry relative="1" as="geometry"/>
        </mxCell>
        <mxCell id="ohPOXBlXeeKUD0lV66k1-8" value="" style="shape=image;verticalLabelPosition=bottom;labelBackgroundColor=#ffffff;verticalAlign=top;aspect=fixed;imageAspect=0;image=https://amitica.net/wp-content/uploads/2019/03/google-apps-script.png;" parent="1" vertex="1">
          <mxGeometry x="230.75" y="380" width="85" height="85" as="geometry"/>
        </mxCell>
        <mxCell id="ohPOXBlXeeKUD0lV66k1-9" value="ドメイン登録" style="text;html=1;resizable=0;points=[];autosize=1;align=left;verticalAlign=top;spacingTop=-4;" parent="1" vertex="1">
          <mxGeometry x="140" y="224.5" width="90" height="20" as="geometry"/>
        </mxCell>
        <mxCell id="ohPOXBlXeeKUD0lV66k1-10" value="GAS" style="text;html=1;resizable=0;points=[];autosize=1;align=left;verticalAlign=top;spacingTop=-4;" parent="1" vertex="1">
          <mxGeometry x="295" y="461" width="40" height="20" as="geometry"/>
        </mxCell>
        <mxCell id="ohPOXBlXeeKUD0lV66k1-73" style="edgeStyle=orthogonalEdgeStyle;rounded=0;orthogonalLoop=1;jettySize=auto;html=1;entryX=0;entryY=0.5;entryDx=0;entryDy=0;" parent="1" source="ohPOXBlXeeKUD0lV66k1-17" target="ohPOXBlXeeKUD0lV66k1-22" edge="1">
          <mxGeometry relative="1" as="geometry"/>
        </mxCell>
        <mxCell id="ohPOXBlXeeKUD0lV66k1-74" style="edgeStyle=orthogonalEdgeStyle;rounded=0;orthogonalLoop=1;jettySize=auto;html=1;entryX=0;entryY=0.5;entryDx=0;entryDy=0;" parent="1" source="ohPOXBlXeeKUD0lV66k1-17" target="ohPOXBlXeeKUD0lV66k1-53" edge="1">
          <mxGeometry relative="1" as="geometry"/>
        </mxCell>
        <mxCell id="ohPOXBlXeeKUD0lV66k1-75" style="edgeStyle=orthogonalEdgeStyle;rounded=0;orthogonalLoop=1;jettySize=auto;html=1;entryX=0;entryY=0.5;entryDx=0;entryDy=0;" parent="1" source="ohPOXBlXeeKUD0lV66k1-17" target="ohPOXBlXeeKUD0lV66k1-59" edge="1">
          <mxGeometry relative="1" as="geometry"/>
        </mxCell>
        <mxCell id="ohPOXBlXeeKUD0lV66k1-17" value="" style="shape=mxgraph.gcp2.doubleRect;strokeColor=#dddddd;fillColor=#ffffff;shadow=1;strokeWidth=1;" parent="1" vertex="1">
          <mxGeometry x="670" y="203" width="130" height="68" as="geometry"/>
        </mxCell>
        <mxCell id="ohPOXBlXeeKUD0lV66k1-18" value="&lt;font color=&quot;#000000&quot;&gt;Cloud&lt;br&gt;Pub/Sub&lt;/font&gt;" style="dashed=0;connectable=0;html=1;fillColor=#5184F3;strokeColor=none;shape=mxgraph.gcp2.hexIcon;prIcon=cloud_pubsub;part=1;labelPosition=right;verticalLabelPosition=middle;align=left;verticalAlign=middle;spacingLeft=5;fontColor=#999999;fontSize=12;" parent="ohPOXBlXeeKUD0lV66k1-17" vertex="1">
          <mxGeometry y="0.5" width="44" height="39" relative="1" as="geometry">
            <mxPoint x="5" y="-19.5" as="offset"/>
          </mxGeometry>
        </mxCell>
        <mxCell id="ohPOXBlXeeKUD0lV66k1-19" value="" style="edgeStyle=orthogonalEdgeStyle;rounded=0;orthogonalLoop=1;jettySize=auto;html=1;exitX=1;exitY=0.5;exitDx=0;exitDy=0;" parent="1" source="ohPOXBlXeeKUD0lV66k1-20" target="ohPOXBlXeeKUD0lV66k1-17" edge="1">
          <mxGeometry relative="1" as="geometry">
            <mxPoint x="679" y="251" as="sourcePoint"/>
          </mxGeometry>
        </mxCell>
        <mxCell id="ohPOXBlXeeKUD0lV66k1-83" style="edgeStyle=orthogonalEdgeStyle;curved=1;orthogonalLoop=1;jettySize=auto;html=1;entryX=0.469;entryY=0.014;entryDx=0;entryDy=0;entryPerimeter=0;startArrow=classic;startFill=1;" parent="1" source="ohPOXBlXeeKUD0lV66k1-20" target="ohPOXBlXeeKUD0lV66k1-68" edge="1">
          <mxGeometry relative="1" as="geometry"/>
        </mxCell>
        <mxCell id="ohPOXBlXeeKUD0lV66k1-20" value="" style="strokeColor=#dddddd;fillColor=#ffffff;shadow=1;strokeWidth=1;rounded=1;absoluteArcSize=1;arcSize=2;" parent="1" vertex="1">
          <mxGeometry x="390" y="207" width="200" height="60" as="geometry"/>
        </mxCell>
        <mxCell id="ohPOXBlXeeKUD0lV66k1-21" value="&lt;font color=&quot;#000000&quot;&gt;クロールコントローラー&lt;br&gt;&lt;/font&gt;Compute Engine" style="dashed=0;connectable=0;html=1;fillColor=#5184F3;strokeColor=none;shape=mxgraph.gcp2.hexIcon;prIcon=compute_engine;part=1;labelPosition=right;verticalLabelPosition=middle;align=left;verticalAlign=middle;spacingLeft=5;fontColor=#999999;fontSize=12;" parent="ohPOXBlXeeKUD0lV66k1-20" vertex="1">
          <mxGeometry y="0.5" width="44" height="39" relative="1" as="geometry">
            <mxPoint x="5" y="-19.5" as="offset"/>
          </mxGeometry>
        </mxCell>
        <mxCell id="ohPOXBlXeeKUD0lV66k1-93" style="edgeStyle=orthogonalEdgeStyle;rounded=0;orthogonalLoop=1;jettySize=auto;html=1;entryX=0;entryY=0.5;entryDx=0;entryDy=0;startArrow=none;startFill=0;" parent="1" source="ohPOXBlXeeKUD0lV66k1-22" target="ohPOXBlXeeKUD0lV66k1-89" edge="1">
          <mxGeometry relative="1" as="geometry"/>
        </mxCell>
        <mxCell id="ohPOXBlXeeKUD0lV66k1-22" value="" style="strokeColor=#dddddd;fillColor=#ffffff;shadow=1;strokeWidth=1;rounded=1;absoluteArcSize=1;arcSize=2;" parent="1" vertex="1">
          <mxGeometry x="875" y="92" width="160" height="60" as="geometry"/>
        </mxCell>
        <mxCell id="ohPOXBlXeeKUD0lV66k1-23" value="&lt;font color=&quot;#000000&quot;&gt;クローラー&lt;/font&gt;&lt;br&gt;Compute Engine" style="dashed=0;connectable=0;html=1;fillColor=#5184F3;strokeColor=none;shape=mxgraph.gcp2.hexIcon;prIcon=compute_engine;part=1;labelPosition=right;verticalLabelPosition=middle;align=left;verticalAlign=middle;spacingLeft=5;fontColor=#999999;fontSize=12;" parent="ohPOXBlXeeKUD0lV66k1-22" vertex="1">
          <mxGeometry y="0.5" width="44" height="39" relative="1" as="geometry">
            <mxPoint x="5" y="-19.5" as="offset"/>
          </mxGeometry>
        </mxCell>
        <mxCell id="ohPOXBlXeeKUD0lV66k1-24" value="" style="edgeStyle=orthogonalEdgeStyle;rounded=0;orthogonalLoop=1;jettySize=auto;html=1;entryX=0.5;entryY=0;entryDx=0;entryDy=0;" parent="1" target="ohPOXBlXeeKUD0lV66k1-43" edge="1">
          <mxGeometry relative="1" as="geometry">
            <mxPoint x="960" y="391" as="sourcePoint"/>
            <mxPoint x="960" y="491" as="targetPoint"/>
          </mxGeometry>
        </mxCell>
        <mxCell id="ohPOXBlXeeKUD0lV66k1-25" value="" style="edgeStyle=orthogonalEdgeStyle;rounded=0;orthogonalLoop=1;jettySize=auto;html=1;exitX=0.825;exitY=0.5;exitDx=0;exitDy=0;exitPerimeter=0;" parent="1" source="ohPOXBlXeeKUD0lV66k1-26" target="ohPOXBlXeeKUD0lV66k1-27" edge="1">
          <mxGeometry relative="1" as="geometry">
            <Array as="points"/>
          </mxGeometry>
        </mxCell>
        <mxCell id="ohPOXBlXeeKUD0lV66k1-27" value="" style="shape=image;html=1;verticalAlign=top;verticalLabelPosition=bottom;labelBackgroundColor=#ffffff;imageAspect=0;aspect=fixed;image=https://cdn2.iconfinder.com/data/icons/circle-icons-1/64/browser-128.png" parent="1" vertex="1">
          <mxGeometry x="1530" y="195" width="84" height="84" as="geometry"/>
        </mxCell>
        <mxCell id="ohPOXBlXeeKUD0lV66k1-28" value="ウェブサイト" style="text;html=1;resizable=0;points=[];autosize=1;align=left;verticalAlign=top;spacingTop=-4;" parent="1" vertex="1">
          <mxGeometry x="1530" y="281" width="90" height="20" as="geometry"/>
        </mxCell>
        <mxCell id="ohPOXBlXeeKUD0lV66k1-31" value="google-cloud-pubsub&lt;br&gt;&lt;br&gt;クロール時にASPがあれば保存" style="text;html=1;resizable=0;points=[];autosize=1;align=left;verticalAlign=top;spacingTop=-4;" parent="1" vertex="1">
          <mxGeometry x="970" y="461" width="180" height="40" as="geometry"/>
        </mxCell>
        <mxCell id="ohPOXBlXeeKUD0lV66k1-33" style="edgeStyle=orthogonalEdgeStyle;rounded=0;orthogonalLoop=1;jettySize=auto;html=1;" parent="1" source="ohPOXBlXeeKUD0lV66k1-34" target="ohPOXBlXeeKUD0lV66k1-35" edge="1">
          <mxGeometry relative="1" as="geometry"/>
        </mxCell>
        <mxCell id="ohPOXBlXeeKUD0lV66k1-34" value="" style="shape=mxgraph.gcp.big_data.cloud_dataflow;html=1;fillColor=#4387FD;gradientColor=#4683EA;strokeColor=none;verticalLabelPosition=bottom;verticalAlign=top;align=center;" parent="1" vertex="1">
          <mxGeometry x="920" y="671" width="80" height="73" as="geometry"/>
        </mxCell>
        <mxCell id="ohPOXBlXeeKUD0lV66k1-35" value="" style="shape=mxgraph.gcp.big_data.bigquery;html=1;fillColor=#4387FD;gradientColor=#4683EA;strokeColor=none;verticalLabelPosition=bottom;verticalAlign=top;align=center;" parent="1" vertex="1">
          <mxGeometry x="520" y="651" width="129" height="113" as="geometry"/>
        </mxCell>
        <mxCell id="ohPOXBlXeeKUD0lV66k1-36" value="BigQuery" style="text;html=1;resizable=0;points=[];autosize=1;align=left;verticalAlign=top;spacingTop=-4;" parent="1" vertex="1">
          <mxGeometry x="555" y="765" width="70" height="20" as="geometry"/>
        </mxCell>
        <mxCell id="ohPOXBlXeeKUD0lV66k1-37" value="取得したASPデータを登録" style="text;html=1;resizable=0;points=[];autosize=1;align=left;verticalAlign=top;spacingTop=-4;" parent="1" vertex="1">
          <mxGeometry x="710" y="681" width="160" height="20" as="geometry"/>
        </mxCell>
        <mxCell id="ohPOXBlXeeKUD0lV66k1-38" style="edgeStyle=orthogonalEdgeStyle;rounded=0;orthogonalLoop=1;jettySize=auto;html=1;" parent="1" source="ohPOXBlXeeKUD0lV66k1-39" target="ohPOXBlXeeKUD0lV66k1-35" edge="1">
          <mxGeometry relative="1" as="geometry"/>
        </mxCell>
        <mxCell id="ohPOXBlXeeKUD0lV66k1-39" value="" style="shape=mxgraph.gcp.big_data.data_studio;html=1;fillColor=#4387FD;gradientColor=#4683EA;strokeColor=none;verticalLabelPosition=bottom;verticalAlign=top;align=center;" parent="1" vertex="1">
          <mxGeometry x="160" y="671" width="80" height="73" as="geometry"/>
        </mxCell>
        <mxCell id="ohPOXBlXeeKUD0lV66k1-40" value="DataStudio" style="text;html=1;resizable=0;points=[];autosize=1;align=left;verticalAlign=top;spacingTop=-4;" parent="1" vertex="1">
          <mxGeometry x="165" y="745" width="70" height="20" as="geometry"/>
        </mxCell>
        <mxCell id="ohPOXBlXeeKUD0lV66k1-41" value="レポート閲覧" style="text;html=1;resizable=0;points=[];autosize=1;align=left;verticalAlign=top;spacingTop=-4;" parent="1" vertex="1">
          <mxGeometry x="110" y="396" width="90" height="20" as="geometry"/>
        </mxCell>
        <mxCell id="ohPOXBlXeeKUD0lV66k1-42" style="edgeStyle=orthogonalEdgeStyle;rounded=0;orthogonalLoop=1;jettySize=auto;html=1;" parent="1" source="ohPOXBlXeeKUD0lV66k1-43" target="ohPOXBlXeeKUD0lV66k1-34" edge="1">
          <mxGeometry relative="1" as="geometry"/>
        </mxCell>
        <mxCell id="ohPOXBlXeeKUD0lV66k1-43" value="" style="shape=mxgraph.gcp2.doubleRect;strokeColor=#dddddd;fillColor=#ffffff;shadow=1;strokeWidth=1;" parent="1" vertex="1">
          <mxGeometry x="881" y="520" width="158" height="68" as="geometry"/>
        </mxCell>
        <mxCell id="ohPOXBlXeeKUD0lV66k1-44" value="&lt;font color=&quot;#000000&quot;&gt;Cloud Pub/Sub&lt;/font&gt;" style="dashed=0;connectable=0;html=1;fillColor=#5184F3;strokeColor=none;shape=mxgraph.gcp2.hexIcon;prIcon=cloud_pubsub;part=1;labelPosition=right;verticalLabelPosition=middle;align=left;verticalAlign=middle;spacingLeft=5;fontColor=#999999;fontSize=12;" parent="ohPOXBlXeeKUD0lV66k1-43" vertex="1">
          <mxGeometry y="0.5" width="44" height="39" relative="1" as="geometry">
            <mxPoint x="5" y="-19.5" as="offset"/>
          </mxGeometry>
        </mxCell>
        <mxCell id="ohPOXBlXeeKUD0lV66k1-45" value="Dataflow" style="text;html=1;resizable=0;points=[];autosize=1;align=left;verticalAlign=top;spacingTop=-4;" parent="1" vertex="1">
          <mxGeometry x="930" y="754" width="60" height="20" as="geometry"/>
        </mxCell>
        <mxCell id="ohPOXBlXeeKUD0lV66k1-46" style="edgeStyle=orthogonalEdgeStyle;rounded=0;orthogonalLoop=1;jettySize=auto;html=1;" parent="1" source="ohPOXBlXeeKUD0lV66k1-47" target="ohPOXBlXeeKUD0lV66k1-34" edge="1">
          <mxGeometry relative="1" as="geometry"/>
        </mxCell>
        <mxCell id="ohPOXBlXeeKUD0lV66k1-47" value="" style="outlineConnect=0;dashed=0;verticalLabelPosition=bottom;verticalAlign=top;align=center;html=1;shape=mxgraph.aws3.template;fillColor=#759C3E;gradientColor=none;" parent="1" vertex="1">
          <mxGeometry x="1070" y="675.5" width="55.5" height="64.5" as="geometry"/>
        </mxCell>
        <mxCell id="ohPOXBlXeeKUD0lV66k1-48" value="Cloud Dataflow Template" style="text;html=1;resizable=0;points=[];autosize=1;align=left;verticalAlign=top;spacingTop=-4;" parent="1" vertex="1">
          <mxGeometry x="1032" y="754" width="150" height="20" as="geometry"/>
        </mxCell>
        <mxCell id="ohPOXBlXeeKUD0lV66k1-49" value="Cloud Pub/Sub Topic to BigQuery" style="text;html=1;resizable=0;points=[];autosize=1;align=left;verticalAlign=top;spacingTop=-4;" parent="1" vertex="1">
          <mxGeometry x="1012" y="651" width="190" height="20" as="geometry"/>
        </mxCell>
        <mxCell id="ohPOXBlXeeKUD0lV66k1-50" value="読み込み" style="text;html=1;resizable=0;points=[];autosize=1;align=left;verticalAlign=top;spacingTop=-4;" parent="1" vertex="1">
          <mxGeometry x="355" y="681" width="60" height="20" as="geometry"/>
        </mxCell>
        <mxCell id="ohPOXBlXeeKUD0lV66k1-92" style="edgeStyle=orthogonalEdgeStyle;rounded=0;orthogonalLoop=1;jettySize=auto;html=1;entryX=0;entryY=0.5;entryDx=0;entryDy=0;startArrow=none;startFill=0;" parent="1" source="ohPOXBlXeeKUD0lV66k1-53" target="ohPOXBlXeeKUD0lV66k1-89" edge="1">
          <mxGeometry relative="1" as="geometry"/>
        </mxCell>
        <mxCell id="ohPOXBlXeeKUD0lV66k1-53" value="" style="strokeColor=#dddddd;fillColor=#ffffff;shadow=1;strokeWidth=1;rounded=1;absoluteArcSize=1;arcSize=2;" parent="1" vertex="1">
          <mxGeometry x="875" y="207" width="160" height="60" as="geometry"/>
        </mxCell>
        <mxCell id="ohPOXBlXeeKUD0lV66k1-54" value="&lt;font color=&quot;#000000&quot;&gt;クローラー&lt;/font&gt;&lt;br&gt;Compute Engine" style="dashed=0;connectable=0;html=1;fillColor=#5184F3;strokeColor=none;shape=mxgraph.gcp2.hexIcon;prIcon=compute_engine;part=1;labelPosition=right;verticalLabelPosition=middle;align=left;verticalAlign=middle;spacingLeft=5;fontColor=#999999;fontSize=12;" parent="ohPOXBlXeeKUD0lV66k1-53" vertex="1">
          <mxGeometry y="0.5" width="44" height="39" relative="1" as="geometry">
            <mxPoint x="5" y="-19.5" as="offset"/>
          </mxGeometry>
        </mxCell>
        <mxCell id="ohPOXBlXeeKUD0lV66k1-84" style="edgeStyle=orthogonalEdgeStyle;curved=1;orthogonalLoop=1;jettySize=auto;html=1;entryX=0.175;entryY=0.5;entryDx=0;entryDy=0;entryPerimeter=0;startArrow=classic;startFill=1;exitX=0.75;exitY=1;exitDx=0;exitDy=0;" parent="1" source="ohPOXBlXeeKUD0lV66k1-59" target="ohPOXBlXeeKUD0lV66k1-62" edge="1">
          <mxGeometry relative="1" as="geometry"/>
        </mxCell>
        <mxCell id="ohPOXBlXeeKUD0lV66k1-91" style="edgeStyle=orthogonalEdgeStyle;orthogonalLoop=1;jettySize=auto;html=1;entryX=0;entryY=0.5;entryDx=0;entryDy=0;startArrow=none;startFill=0;rounded=0;" parent="1" source="ohPOXBlXeeKUD0lV66k1-59" target="ohPOXBlXeeKUD0lV66k1-89" edge="1">
          <mxGeometry relative="1" as="geometry"/>
        </mxCell>
        <mxCell id="ohPOXBlXeeKUD0lV66k1-59" value="" style="strokeColor=#dddddd;fillColor=#ffffff;shadow=1;strokeWidth=1;rounded=1;absoluteArcSize=1;arcSize=2;" parent="1" vertex="1">
          <mxGeometry x="875" y="329.5" width="160" height="60" as="geometry"/>
        </mxCell>
        <mxCell id="ohPOXBlXeeKUD0lV66k1-60" value="&lt;font color=&quot;#000000&quot;&gt;クローラー&lt;/font&gt;&lt;br&gt;Compute Engine" style="dashed=0;connectable=0;html=1;fillColor=#5184F3;strokeColor=none;shape=mxgraph.gcp2.hexIcon;prIcon=compute_engine;part=1;labelPosition=right;verticalLabelPosition=middle;align=left;verticalAlign=middle;spacingLeft=5;fontColor=#999999;fontSize=12;" parent="ohPOXBlXeeKUD0lV66k1-59" vertex="1">
          <mxGeometry y="0.5" width="44" height="39" relative="1" as="geometry">
            <mxPoint x="5" y="-19.5" as="offset"/>
          </mxGeometry>
        </mxCell>
        <mxCell id="ohPOXBlXeeKUD0lV66k1-62" value="Cloud&#xa;Memorystore" style="html=1;fillColor=#5184F3;strokeColor=none;verticalAlign=top;labelPosition=center;verticalLabelPosition=bottom;align=center;spacingTop=-6;fontSize=11;fontStyle=1;fontColor=#999999;shape=mxgraph.gcp2.hexIcon;prIcon=cloud_memorystore" parent="1" vertex="1">
          <mxGeometry x="1140" y="360" width="123" height="105" as="geometry"/>
        </mxCell>
        <mxCell id="ohPOXBlXeeKUD0lV66k1-65" value="Google&lt;br&gt;splead&lt;br&gt;sheet" style="text;html=1;resizable=0;points=[];autosize=1;align=left;verticalAlign=top;spacingTop=-4;" parent="1" vertex="1">
          <mxGeometry x="285" y="289.5" width="50" height="40" as="geometry"/>
        </mxCell>
        <mxCell id="ohPOXBlXeeKUD0lV66k1-66" value="" style="shape=image;html=1;verticalAlign=top;verticalLabelPosition=bottom;labelBackgroundColor=#ffffff;imageAspect=0;aspect=fixed;image=https://cdn3.iconfinder.com/data/icons/document-icons-2/30/647714-excel-128.png" parent="1" vertex="1">
          <mxGeometry x="235" y="214.5" width="76.5" height="76.5" as="geometry"/>
        </mxCell>
        <mxCell id="ohPOXBlXeeKUD0lV66k1-76" style="edgeStyle=orthogonalEdgeStyle;rounded=0;orthogonalLoop=1;jettySize=auto;html=1;entryX=0.5;entryY=1;entryDx=0;entryDy=0;" parent="1" source="ohPOXBlXeeKUD0lV66k1-71" target="ohPOXBlXeeKUD0lV66k1-8" edge="1">
          <mxGeometry relative="1" as="geometry"/>
        </mxCell>
        <mxCell id="ohPOXBlXeeKUD0lV66k1-71" value="GAS Trigger" style="html=1;fillColor=#5184F3;strokeColor=none;verticalAlign=top;labelPosition=center;verticalLabelPosition=bottom;align=center;fontSize=11;fontStyle=1;fontColor=#999999;shape=mxgraph.gcp2.cloud_scheduler" parent="1" vertex="1">
          <mxGeometry x="395" y="528" width="75" height="81" as="geometry"/>
        </mxCell>
        <mxCell id="ohPOXBlXeeKUD0lV66k1-72" value="" style="group" parent="1" vertex="1" connectable="0">
          <mxGeometry x="549" y="390" width="81" height="91.25" as="geometry"/>
        </mxCell>
        <mxCell id="ohPOXBlXeeKUD0lV66k1-68" value="" style="shape=mxgraph.gcp.storage_databases.cloud_sql;html=1;fillColor=#4387FD;gradientColor=#4683EA;strokeColor=none;verticalLabelPosition=bottom;verticalAlign=top;align=center;" parent="ohPOXBlXeeKUD0lV66k1-72" vertex="1">
          <mxGeometry width="81" height="70.67021276595744" as="geometry"/>
        </mxCell>
        <mxCell id="ohPOXBlXeeKUD0lV66k1-69" value="CloudSQL" style="text;html=1;align=center;verticalAlign=middle;resizable=0;points=[];;autosize=1;" parent="ohPOXBlXeeKUD0lV66k1-72" vertex="1">
          <mxGeometry x="12.149999999999999" y="75.71808510638297" width="70" height="20" as="geometry"/>
        </mxCell>
        <mxCell id="ohPOXBlXeeKUD0lV66k1-85" style="edgeStyle=orthogonalEdgeStyle;curved=1;orthogonalLoop=1;jettySize=auto;html=1;entryX=0.25;entryY=1;entryDx=0;entryDy=0;startArrow=classic;startFill=1;" parent="1" source="ohPOXBlXeeKUD0lV66k1-68" target="ohPOXBlXeeKUD0lV66k1-59" edge="1">
          <mxGeometry relative="1" as="geometry"/>
        </mxCell>
        <mxCell id="ohPOXBlXeeKUD0lV66k1-94" style="edgeStyle=orthogonalEdgeStyle;rounded=0;orthogonalLoop=1;jettySize=auto;html=1;entryX=0.175;entryY=0.5;entryDx=0;entryDy=0;entryPerimeter=0;startArrow=none;startFill=0;" parent="1" source="ohPOXBlXeeKUD0lV66k1-89" target="ohPOXBlXeeKUD0lV66k1-26" edge="1">
          <mxGeometry relative="1" as="geometry"/>
        </mxCell>
        <mxCell id="ohPOXBlXeeKUD0lV66k1-89" value="" style="strokeColor=#dddddd;fillColor=#ffffff;shadow=1;strokeWidth=1;rounded=1;absoluteArcSize=1;arcSize=2;" parent="1" vertex="1">
          <mxGeometry x="1121.5" y="207" width="160" height="60" as="geometry"/>
        </mxCell>
        <mxCell id="ohPOXBlXeeKUD0lV66k1-90" value="&lt;font color=&quot;#000000&quot;&gt;プロキシサーバ&lt;/font&gt;&lt;br&gt;Compute Engine" style="dashed=0;connectable=0;html=1;fillColor=#5184F3;strokeColor=none;shape=mxgraph.gcp2.hexIcon;prIcon=compute_engine;part=1;labelPosition=right;verticalLabelPosition=middle;align=left;verticalAlign=middle;spacingLeft=5;fontColor=#999999;fontSize=12;" parent="ohPOXBlXeeKUD0lV66k1-89" vertex="1">
          <mxGeometry y="0.5" width="44" height="39" relative="1" as="geometry">
            <mxPoint x="5" y="-19.5" as="offset"/>
          </mxGeometry>
        </mxCell>
        <mxCell id="ohPOXBlXeeKUD0lV66k1-95" value="" style="endArrow=none;dashed=1;html=1;" parent="1" edge="1">
          <mxGeometry width="50" height="50" relative="1" as="geometry">
            <mxPoint x="1440" y="790" as="sourcePoint"/>
            <mxPoint x="1440" y="80" as="targetPoint"/>
          </mxGeometry>
        </mxCell>
        <mxCell id="ohPOXBlXeeKUD0lV66k1-26" value="Cloud NAT" style="html=1;fillColor=#5184F3;strokeColor=none;verticalAlign=top;labelPosition=center;verticalLabelPosition=bottom;align=center;spacingTop=-6;fontSize=11;fontStyle=1;fontColor=#999999;shape=mxgraph.gcp2.hexIcon;prIcon=cloud_nat" parent="1" vertex="1">
          <mxGeometry x="1350" y="187" width="110" height="100" as="geometry"/>
        </mxCell>
      </root>
    </mxGraphModel>
  </diagram>
</mxfile>
